<svg xmlns="http://www.w3.org/2000/svg" viewBox="0 0 1200 900" role="img" aria-labelledby="title desc">
  <title id="title">CR7 celebration poster</title>
  <desc id="desc">A local stylized celebration poster for the Ronaldo website.</desc>
  <defs>
    <linearGradient id="bg" x1="0%" y1="0%" x2="100%" y2="100%">
      <stop offset="0%" stop-color="#0f0f0f"/>
      <stop offset="100%" stop-color="#25190e"/>
    </linearGradient>
    <radialGradient id="flare" cx="58%" cy="36%" r="40%">
      <stop offset="0%" stop-color="#f7cf71" stop-opacity="0.88"/>
      <stop offset="100%" stop-color="#f7cf71" stop-opacity="0"/>
    </radialGradient>
  </defs>
  <rect width="1200" height="900" fill="url(#bg)"/>
  <circle cx="725" cy="255" r="255" fill="url(#flare)"/>
  <g transform="translate(380 115)">
    <path d="M207 55c40 0 72 32 72 71 0 34-24 63-57 70l51 41 113 42-38 95-89-35-31-18 52 147-104 35-64-184-66 187-102-38 70-180-52 28-84 28-32-94 111-39 122-84c-33-7-57-36-57-70 0-39 32-71 71-71 24 0 43 8 57 22 13-15 34-25 57-25z" fill="#f0e4cd"/>
    <path d="M147 128c61 40 175 39 251-1" stroke="#171717" stroke-width="12" fill="none" stroke-linecap="round"/>
  </g>
  <g fill="#f7cf71" font-family="Arial, sans-serif" font-weight="700">
    <text x="104" y="708" font-size="164">SIUUU</text>
    <text x="108" y="796" font-size="30" fill="#d6cab7" letter-spacing="8">THE CELEBRATION THAT BECAME A SYMBOL</text>
  </g>
</svg>
